<svg xmlns="http://www.w3.org/2000/svg" viewBox="0 0 564.85 144.94"><defs><style>.cls-1{fill:#334781;}.cls-1,.cls-2,.cls-3,.cls-4,.cls-5,.cls-6{fill-rule:evenodd;}.cls-2{fill:#353535;}.cls-3{fill:#333;}.cls-4{fill:#343434;}.cls-5{fill:#f6f7f7;}.cls-6{fill:#d70612;}</style></defs><g id="Layer_2" data-name="Layer 2"><g id="Layer_1-2" data-name="Layer 1"><path class="cls-1" d="M86.11.61a59.22,59.22,0,0,1,36.3,6.45A70.37,70.37,0,0,1,144.5,25.87q24,43.79-11.5,78.5-34.23,24.6-71,4a54.89,54.89,0,0,1-20.5-25.5Q25.45,43.21,10,3.37,15.21,3.06,20.79,3A219,219,0,0,1,43,3.87s.67,1.64.73,1.75c.34.7.65,1.41,1,2.12.6,1.43,1.14,2.89,1.69,4.34,2.45,6.53,5.1,13,7.72,19.44l2.21,5.42c.38.92.76,1.84,1.13,2.76L58,41.08a4.66,4.66,0,0,1,.52,1.28q4,9.81,8.12,19.58C69,67.67,70.7,73.33,75.06,78a27.91,27.91,0,0,0,15.29,8.4,27.75,27.75,0,0,0,29.83-39.27c-6.29-13.26-20.56-15.52-24.1-15.93-14.6-1.7-24.77,7.42-26.29,8.84-2-4.72-3.76-8.46-5-11-1.33-2.71-2.57-5.1-4-8.72-1.66-4.21-3.14-6.7-2.29-7.4A56.53,56.53,0,0,1,86.11.61Z"/><path class="cls-2" d="M550.79,116a257.07,257.07,0,0,0,1-32h-25V72h38q.24,25.5-.5,51-35.13,25.56-70.5.5A74.4,74.4,0,0,1,477.2,54.33c5.44-20.62,20.39-34.66,40.59-40.84q26.75-4.58,46,14a56.27,56.27,0,0,0-8.5,9.5q-19.87-18.2-44.5-6.5A45.53,45.53,0,0,0,491.29,62a71.28,71.28,0,0,0,7,44q17,22.5,44.5,14.5A46.93,46.93,0,0,0,550.79,116Z"/><path class="cls-3" d="M176.79,15h68V27h-53V65h45V77h-45v44h55v12h-70Z"/><path class="cls-4" d="M258.79,15h8.82c3.07,0,6.13,0,9.18,0Q284,36.68,292,59q7.81,21.95,15.82,43,15.49-43.5,31-87h18V133h-14q-.56-50.1,1.5-100l-31.5,85h-10l-31.5-83q.58,49,.5,98h-13Z"/><path class="cls-2" d="M416,15h7.79c.85,2.15,2.16,5.53,3.7,9.69,3.25,8.78,5.48,15.53,6.41,18.4,8.72,26.82,17.29,53.68,25.89,80.53l3,9.38q-3.45,0-7-.05-4,0-7.83.05-5.19-17.58-11-35-10.65-.73-22.21-1-11.31-.26-21.79,0-4.78,17.6-10.5,35H367q10-29,19.82-58,10-29.49,20-59H416Z"/><path class="cls-5" d="M433,84.87a305.34,305.34,0,0,1-35-1q8.21-28.59,17-57Q424.3,55.78,433,84.87Z"/><path class="cls-6" d="M26,77A19.93,19.93,0,0,1,28,80.8q1,2.06,2,4.11c1.27,2.69,2.55,5.38,3.91,8a67.31,67.31,0,0,0,9.82,14.86c.75.83,2.43,2.26,2.16,3.53a31,31,0,0,1-2,4.92c-.66,1.63-1.34,3.27-2,4.9q-2,4.9-4.08,9.79Q34.9,137.66,32,144.37q-16,.75-32,.5c.24,0,1.53-4.3,1.69-4.75l1.77-5q1.8-4.95,3.61-9.88,3.66-9.87,7.45-19.68,2.76-7.15,5.62-14.29c1-2.42,1.93-4.82,2.91-7.23C23.94,81.88,24.64,78.94,26,77Z"/></g></g></svg>