<svg xmlns="http://www.w3.org/2000/svg" viewBox="0 0 154.28 145.19"><defs><style>.cls-1{fill:#334781;}.cls-1,.cls-2{stroke:#fff;stroke-miterlimit:10;stroke-width:0.25px;fill-rule:evenodd;}.cls-2{fill:#d70612;}</style></defs><g id="Layer_2" data-name="Layer 2"><g id="Layer_1-2" data-name="Layer 1"><path class="cls-1" d="M86.11.73a59.22,59.22,0,0,1,36.3,6.46A70.37,70.37,0,0,1,144.5,26q24,43.77-11.5,78.5-34.23,24.59-71,4A55,55,0,0,1,41.5,83Q25.45,43.33,10,3.5c3.47-.21,7.07-.35,10.79-.39A215.93,215.93,0,0,1,43,4s.67,1.63.73,1.75c.34.69.65,1.4,1,2.12.61,1.43,1.14,2.88,1.69,4.34,2.45,6.53,5.1,13,7.73,19.44.73,1.81,1.47,3.61,2.21,5.42.37.92.75,1.84,1.13,2.76.18.46.37.92.56,1.38a4.69,4.69,0,0,1,.53,1.28q4,9.8,8.11,19.58c2.39,5.72,4.06,11.39,8.42,16a28,28,0,0,0,15.29,8.4A27.75,27.75,0,0,0,120.18,47.2C113.9,34,99.62,31.68,96.08,31.27c-14.6-1.69-24.77,7.43-26.29,8.84-2-4.72-3.76-8.46-5-11-1.33-2.71-2.56-5.09-4-8.71-1.67-4.22-3.15-6.71-2.3-7.4A56.59,56.59,0,0,1,86.11.73Z"/><path class="cls-2" d="M26,77.13A20,20,0,0,1,28,80.93c.67,1.36,1.32,2.73,2,4.11,1.28,2.68,2.55,5.37,3.91,8a67.31,67.31,0,0,0,9.82,14.86c.75.82,2.43,2.26,2.16,3.52a31.08,31.08,0,0,1-2,4.92c-.67,1.64-1.34,3.27-2,4.91q-2,4.91-4.07,9.79Q34.91,137.8,32,144.5q-16,.75-32,.5c.25,0,1.53-4.31,1.69-4.76q.88-2.48,1.78-5c1.19-3.29,2.39-6.59,3.61-9.87q3.64-9.87,7.44-19.68,2.78-7.17,5.62-14.3,1.44-3.61,2.91-7.23C24,82,24.64,79.07,26,77.13Z"/></g></g></svg>