<svg xmlns="http://www.w3.org/2000/svg" viewBox="0 0 154.16 144.94"><defs><style>.cls-1{fill:#334781;}.cls-1,.cls-2{fill-rule:evenodd;}.cls-2{fill:#d70612;}</style></defs><g id="Layer_2" data-name="Layer 2"><g id="Layer_1-2" data-name="Layer 1"><path class="cls-1" d="M86.11.61a59.22,59.22,0,0,1,36.3,6.45A70.37,70.37,0,0,1,144.5,25.87q24,43.79-11.5,78.5-34.23,24.6-71,4a54.89,54.89,0,0,1-20.5-25.5Q25.45,43.21,10,3.37,15.21,3.06,20.79,3A219,219,0,0,1,43,3.87s.67,1.64.73,1.75c.34.7.65,1.41,1,2.12.6,1.43,1.14,2.89,1.69,4.34,2.45,6.53,5.1,13,7.72,19.44l2.21,5.42c.38.92.76,1.84,1.13,2.76L58,41.08a4.66,4.66,0,0,1,.52,1.28q4,9.81,8.12,19.58C69,67.67,70.7,73.33,75.06,78a27.91,27.91,0,0,0,15.29,8.4,27.75,27.75,0,0,0,29.83-39.27c-6.29-13.26-20.56-15.52-24.1-15.93-14.6-1.7-24.77,7.42-26.29,8.84-2-4.72-3.76-8.46-5-11-1.33-2.71-2.57-5.1-4-8.72-1.66-4.21-3.14-6.7-2.29-7.4A56.53,56.53,0,0,1,86.11.61Z"/><path class="cls-2" d="M26,77A19.93,19.93,0,0,1,28,80.8q1,2.06,2,4.11c1.27,2.69,2.55,5.38,3.91,8a67.31,67.31,0,0,0,9.82,14.86c.75.83,2.43,2.26,2.16,3.53a31,31,0,0,1-2,4.92c-.66,1.63-1.34,3.27-2,4.9q-2,4.9-4.08,9.79Q34.9,137.66,32,144.37q-16,.75-32,.5c.24,0,1.53-4.3,1.69-4.75l1.77-5q1.8-4.95,3.61-9.88,3.66-9.87,7.45-19.68,2.76-7.15,5.62-14.29c1-2.42,1.93-4.82,2.91-7.23C23.94,81.88,24.64,78.94,26,77Z"/></g></g></svg>