<svg xmlns="http://www.w3.org/2000/svg" xmlns:xlink="http://www.w3.org/1999/xlink" width="219" height="48"><g fill-rule="nonzero"><path d="M35 13.332c-3.072-3.28-6.937-5.263-11.044-5.33s-8.02 1.166-11.205 4.33c-6.37 6.33-6.63 16.705-.485 23.268 3.072 3.28 7 4.813 11.108 4.897s7.94-1.765 11.125-4.93L45.532 24.6 35 13.332zm-3.105 9.643c1.133 1.616 1.596 3.63 1.287 5.6s-1.366 3.73-2.936 4.894a6.74 6.74 0 0 1-1.795.966l-.2-3.364a7.52 7.52 0 0 1-.598 1.033c-2.386 3.333-6.938 4.055-10.187 1.616a7.71 7.71 0 0 1-1.455-1.466l3.056-1.25c-2.127-.3-4.008-1.585-5.126-3.475a7.59 7.59 0 0 1-.647-6.285c.22-.666.524-1.3.905-1.882l2.054 2.565c-.052-.364-.08-.73-.08-1.1 0-4.15 3.265-7.512 7.292-7.512a7.29 7.29 0 0 1 2.005.3l-1.746 2.865a6.13 6.13 0 0 1 1.067-.466c1.84-.618 3.843-.457 5.566.45s3.026 2.483 3.618 4.38a8.38 8.38 0 0 1 .356 2.065l-3.202-.833a6.8 6.8 0 0 1 .776.899h0zm-5.3-3.947a6.03 6.03 0 0 0-7.202.349c-2.072 1.697-2.836 4.564-1.9 7.098s3.385 4.156 6.04 4.017 4.918-2.007 5.605-4.626c.672-2.602-.355-5.35-2.553-6.838h0z" fill="#28a8e0"/><path d="M10.365 1.622a25.19 25.19 0 0 0-4.639 3.605 28.16 28.16 0 0 0-2.973 3.472l1.633 1.096C6.232 7.22 8.57 5.05 11.263 3.416l-.898-1.794M3.423 36.045l-1.9.98a25.63 25.63 0 0 0 3.642 4.868 26.01 26.01 0 0 0 3.283 2.924l1.192-1.894a21.79 21.79 0 0 1-3.005-2.675 24.97 24.97 0 0 1-3.201-4.203M-2 24.964a26.31 26.31 0 0 0 2.368 9.852l1.878-1.013a23.63 23.63 0 0 1-1.878-5.964 25.92 25.92 0 0 1-.327-2.758L-2 24.964m40.427-21.98l-1.24 1.944c2.485 1.883 4.578 4.25 6.158 6.96l2.074-1.08c-1.025-1.756-2.247-3.384-3.642-4.85a24.53 24.53 0 0 0-3.348-2.974m4.18 34.416a23.26 23.26 0 0 1-3.022 3.622h0a22.81 22.81 0 0 1-3.953 3.123l1.045 2a25.34 25.34 0 0 0 4.508-3.522 26.06 26.06 0 0 0 3.316-3.987L42.608 37.4M1.38 10.875c-1.766 3.1-2.874 6.54-3.25 10.1l2 .116a23.91 23.91 0 0 1 1.682-6.68 24.01 24.01 0 0 1 1.192-2.442L1.38 10.875m24.894-12.71L26.16.342a23.35 23.35 0 0 1 6.207 1.728 21.57 21.57 0 0 1 2.532 1.312l1.24-1.927a25.16 25.16 0 0 0-9.865-3.289M23.122-2A25.02 25.02 0 0 0 12.995.226l.93 1.8A23.29 23.29 0 0 1 19.169.459c1.268-.22 2.55-.33 3.838-.332L23.122-2M11.786 44.368l-1.225 1.877a25.3 25.3 0 0 0 9.866 3.406l.114-2.26a23.42 23.42 0 0 1-6.272-1.76 23.3 23.3 0 0 1-2.483-1.263m21.038 1.262c-1.7.753-3.504 1.294-5.34 1.612a22.46 22.46 0 0 1-3.79.332l-.114 2.276a25.1 25.1 0 0 0 10.258-2.193l-1.013-2.027" opacity="0" fill="#fff"/><path d="M11.263 3.416C8.57 5.05 6.232 7.22 4.387 9.796l3.544 2.36c1.465-1.922 3.264-3.555 5.31-4.818l-1.976-3.92" fill="#2ca8df"/><path d="M7.016 34.184l-3.593 1.86a24.97 24.97 0 0 0 3.201 4.203 21.79 21.79 0 0 0 3.005 2.675l2.172-3.39c-1.915-1.458-3.54-3.273-4.786-5.35" fill="#aadaf1"/><path d="M.042 25.08a25.92 25.92 0 0 0 .327 2.758 23.63 23.63 0 0 0 1.878 5.964l3.38-1.844c-.915-2.2-1.405-5.05-1.503-6.662L.042 25.08" fill="#80caea"/><path d="M37.185 4.928l-2.172 3.406c1.913 1.47 3.542 3.29 4.802 5.366l3.528-1.81c-1.58-2.712-3.673-5.078-6.158-6.96" fill="#0a2c3a"/><path d="M39.162 35.114c-1.405 1.894-3.495 3.937-5.52 5.2l1.993 3.82a22.81 22.81 0 0 0 3.953-3.123h0a23.26 23.26 0 0 0 3.022-3.622l-3.446-2.276" fill="#f59222"/><path d="M3.015 11.972a24.01 24.01 0 0 0-1.192 2.442c-.88 2.13-1.447 4.38-1.682 6.68l4.198.216c.316-2.446 1.087-4.808 2.27-6.96l-3.593-2.376" fill="#59bae6"/><path d="M26.16.342l-.23 4.27c2.362.32 4.648 1.075 6.746 2.226l2.22-3.456a21.57 21.57 0 0 0-2.532-1.312C30.385 1.2 28.297.628 26.16.342" fill="#1a5872"/><path d="M23.007.127C21.72.13 20.437.24 19.17.46a23.29 23.29 0 0 0-5.243 1.578l1.96 3.854a19.03 19.03 0 0 1 6.909-1.479l.212-4.286" fill="#2280a8"/><path d="M13.958 41.03l-2.172 3.34a23.3 23.3 0 0 0 2.483 1.263c2 .877 4.112 1.47 6.272 1.76l.23-4.104a18.97 18.97 0 0 1-6.811-2.259" fill="#f9d1a3"/><path d="M30.962 41.91a20.24 20.24 0 0 1-7.056 1.545l-.212 4.12a22.46 22.46 0 0 0 3.79-.332c1.837-.318 3.63-.86 5.34-1.612l-1.862-3.72" fill="#f6a74c"/><path d="M54.452 17.712c1.612-1.723 3.837-2.7 6.165-2.712 4.072 0 7.284 2.612 8.307 6.738h-2.547c-.94-2.745-3.13-4.126-5.76-4.126-1.66.014-3.243.723-4.38 1.963a6.83 6.83 0 0 0-1.833 4.708c0 1.733.658 3.397 1.833 4.642a5.95 5.95 0 0 0 4.38 1.963c2.693 0 4.997-1.597 5.905-4.36h2.53c-1.022 4.16-4.283 6.97-8.436 6.97-2.33-.003-4.557-.983-6.165-2.712a9.66 9.66 0 0 1 0-13.076h0zm19.266 13.18h8.566V33.5h-11.27v-18h11.254v2.6h-8.55v5.082h8.365v2.623h-8.365zm19.836-12.82h-3.366v12.82h3.366V33.5h-9.3v-2.607h3.35v-12.82h-3.35V15.5h9.3z" fill="#2280a9"/><path d="M105.45 23.1h7.557v-7.6h2.6v18h-2.6v-7.836h-7.557V33.5h-2.584v-18h2.584zm22.908 5.036h-6.378l-2.137 5.364h-2.768l7.138-18.5h1.878l7.155 18.5h-2.752l-2.137-5.364zm-5.406-2.474h4.42l-2.185-6.46-2.234 6.46zm14.908 5.23h8.616V33.5h-11.27v-18h2.655zm13.177 2.607h-2.6v-18h10.78v2.6h-8.18v5.082h7.242v2.623h-7.242zm18.483-5.364h-6.378l-2.137 5.364h-2.768l7.138-18.5h1.878l7.155 18.5h-2.752l-2.137-5.364zm-5.423-2.474h4.435l-2.185-6.46-2.25 6.46zm12.95-7.924a8.93 8.93 0 0 1 12.852 0c3.52 3.6 3.52 9.413 0 13.023a8.93 8.93 0 0 1-12.852 0c-3.52-3.6-3.52-9.413 0-13.023h0zm11.023 1.85a6.5 6.5 0 0 0-4.613-1.949 6.32 6.32 0 0 0-4.548 1.95c-1.223 1.235-1.9 2.912-1.9 4.66s.687 3.425 1.9 4.66a6.33 6.33 0 0 0 4.548 1.95c2.63-.015 4.997-1.625 6.004-4.085s.46-5.3-1.4-7.185h0zm6.43 8.224V15h2.607v12.845c0 2.018 2.118 3.02 4.025 3.02s3.992-1.034 3.992-3.053V15h2.607v12.845c0 3.72-3.536 5.655-6.6 5.655s-6.632-1.935-6.632-5.688zm24.5-9.738h-3.35v12.82H219V33.5h-9.3v-2.607h3.35v-12.82h-3.35V15.5h9.3z" fill="#28a8e0"/><g fill="#f27023"><path d="M108.255 38.137l-.754.725a2.22 2.22 0 0 0-1.684-.807 1.85 1.85 0 0 0-1.347.544c-.36.364-.557.865-.545 1.384a2.13 2.13 0 0 0 .24 1.022 1.64 1.64 0 0 0 .7.692 1.93 1.93 0 0 0 .978.247 1.77 1.77 0 0 0 .834-.181 2.7 2.7 0 0 0 .834-.643l.722.775a4.02 4.02 0 0 1-1.155.857 3.04 3.04 0 0 1-1.251.247 2.83 2.83 0 0 1-2.117-.857c-.56-.568-.863-1.35-.834-2.16a3.11 3.11 0 0 1 .37-1.516 2.89 2.89 0 0 1 1.091-1.071 3 3 0 0 1 1.507-.395c.454 0 .903.1 1.315.297a3.27 3.27 0 0 1 1.107.84h0zm3.823.48h1.077V42.9h-1.077v-.452a1.92 1.92 0 0 1-.613.418 1.59 1.59 0 0 1-.68.134 1.83 1.83 0 0 1-1.425-.636 2.29 2.29 0 0 1-.613-1.606 2.27 2.27 0 0 1 .597-1.622 1.87 1.87 0 0 1 1.41-.636 1.76 1.76 0 0 1 .713.151 1.89 1.89 0 0 1 .613.435v-.468zm-1.1.87a1.09 1.09 0 0 0-.829.351 1.33 1.33 0 0 0-.315.903 1.23 1.23 0 0 0 .331.92 1.06 1.06 0 0 0 .812.368 1.11 1.11 0 0 0 .83-.368 1.23 1.23 0 0 0 .331-.92 1.21 1.21 0 0 0-.331-.903 1.09 1.09 0 0 0-.829-.351h0zM115.183 37v2.1a2.16 2.16 0 0 1 .632-.432 1.78 1.78 0 0 1 .715-.15c.545-.003 1.066.227 1.43.63a2.31 2.31 0 0 1 .582 1.612 2.21 2.21 0 0 1-.616 1.595 1.85 1.85 0 0 1-1.414.631 1.63 1.63 0 0 1-.699-.133 2.13 2.13 0 0 1-.632-.415v.45h-1.048V37h1.048zm1.13 2.5a1.1 1.1 0 0 0-.832.349 1.2 1.2 0 0 0-.333.897 1.21 1.21 0 0 0 .333.914 1.12 1.12 0 0 0 .832.366 1.13 1.13 0 0 0 .832-.366 1.28 1.28 0 0 0 .333-.914 1.33 1.33 0 0 0-.333-.897 1.1 1.1 0 0 0-.832-.349h0zm3.457-2.5c.195-.002.383.07.52.2a.67.67 0 0 1 .215.497.64.64 0 0 1-.215.481.71.71 0 0 1-.502.199c-.2.005-.396-.067-.538-.2s-.22-.3-.215-.497c0-.18.077-.353.215-.48a.77.77 0 0 1 .52-.2h0zm-.574 1.757h1.147V43h-1.147v-4.243zm1.8-.137h1.104v.445a2.73 2.73 0 0 1 .69-.445 1.58 1.58 0 0 1 1.726.342 1.53 1.53 0 0 1 .397 1.129V43h-1.104v-1.916c.017-.35-.006-.7-.07-1.043-.06-.318-.347-.544-.673-.53-.218-.007-.43.073-.587.222a1.2 1.2 0 0 0-.328.616 4.61 4.61 0 0 0-.052.889V43h-1.104v-4.38zm8.818 2.44h-3.392a1.16 1.16 0 0 0 .393.735 1.31 1.31 0 0 0 .819.267 1.46 1.46 0 0 0 1.016-.418l.885.418a2.36 2.36 0 0 1-.803.719 2.48 2.48 0 0 1-1.098.217 2.09 2.09 0 0 1-1.588-.617 2.2 2.2 0 0 1-.64-1.606 2.26 2.26 0 0 1 .623-1.62 2.06 2.06 0 0 1 1.557-.652 2.11 2.11 0 0 1 1.606.652c.423.46.647 1.074.623 1.705v.2zm-1.065-.836c-.06-.24-.206-.45-.4-.585a1.15 1.15 0 0 0-.705-.234c-.277-.007-.548.08-.77.25a1.42 1.42 0 0 0-.393.568h2.278zM130.905 37h1.162v1.6h.7v.943h-.7V43h-1.162v-3.446h-.6v-.943h.6zm7.63 0h1.08v5.9h-1.08v-.45a1.92 1.92 0 0 1-.615.415 1.6 1.6 0 0 1-.682.133c-.547.012-1.07-.22-1.43-.632a2.26 2.26 0 0 1-.599-1.595 2.24 2.24 0 0 1 .582-1.612 1.85 1.85 0 0 1 1.414-.632 1.78 1.78 0 0 1 .715.15c.232.102.44.248.615.432V37zm-1.114 2.5a1.1 1.1 0 0 0-.832.349 1.31 1.31 0 0 0-.316.897 1.21 1.21 0 0 0 .333.914c.205.235.503.37.815.366.317.002.62-.13.832-.366.234-.245.354-.576.333-.914a1.19 1.19 0 0 0-.333-.897 1.1 1.1 0 0 0-.832-.349h0zm3.175-2.5h.98v.606a3.43 3.43 0 0 1-.133 1.004 3.31 3.31 0 0 1-.415.89l-.398-.36a1.68 1.68 0 0 0 .216-.398 2.57 2.57 0 0 0 .133-.473h-.382V37zm2.45.5h2.94v1.017h-1.913v1h1.913v1h-1.913v1.462h1.913V43h-2.94zm3.577 1h1.225l.833 1.23.817-1.23h1.2l-1.42 2.127 1.6 2.373h-1.225l-.996-1.477-.98 1.477h-1.2l1.6-2.373zm5.814.118v.47a1.94 1.94 0 0 1 .63-.437 1.7 1.7 0 0 1 .713-.15 1.89 1.89 0 0 1 1.425.64 2.36 2.36 0 0 1 .58 1.63 2.32 2.32 0 0 1-.613 1.613 1.83 1.83 0 0 1-1.425.639 1.59 1.59 0 0 1-.68-.134 1.97 1.97 0 0 1-.63-.42v2.03h-1.06v-5.882h1.06zm1.127.874a1.13 1.13 0 0 0-.845.353 1.3 1.3 0 0 0-.33.908 1.31 1.31 0 0 0 .33.924c.22.236.525.37.845.37.3-.001.605-.135.812-.37.237-.246.363-.58.348-.924.004-.334-.114-.657-.33-.908a1.09 1.09 0 0 0-.83-.353h0zm7.105 1.568h-3.375a1.16 1.16 0 0 0 .393.735 1.26 1.26 0 0 0 .803.267c.38.001.743-.15 1.016-.418l.9.418a2.36 2.36 0 0 1-.803.719 2.48 2.48 0 0 1-1.098.217c-.6.028-1.182-.202-1.605-.635a2.13 2.13 0 0 1-.623-1.588c-.023-.605.203-1.193.623-1.62a2.01 2.01 0 0 1 1.54-.652c.607-.027 1.196.2 1.622.652.423.46.647 1.074.623 1.705l-.016.2zm-1.048-.836c-.06-.24-.206-.45-.4-.585a1.15 1.15 0 0 0-.704-.234 1.31 1.31 0 0 0-.786.251 1.59 1.59 0 0 0-.377.568h2.277zm1.555-1.604h.994v.548a1.07 1.07 0 0 1 .408-.496 1.02 1.02 0 0 1 .586-.171c.162.002.32.043.462.12l-.355.94a.82.82 0 0 0-.337-.103c-.178 0-.32.103-.444.325s-.178.616-.178 1.232V43h-1.136v-4.38z"/><path d="M164.226 37h1.162v1.6h.7v.943h-.7V43h-1.162v-3.446h-.6v-.943h.6zm2.57 0a.71.71 0 0 1 .52.199.69.69 0 0 1 .233.497c0 .375-.33.68-.735.68a.71.71 0 0 1-.52-.199c-.142-.132-.22-.3-.215-.497a.64.64 0 0 1 .215-.481.71.71 0 0 1 .502-.199h0zm-.574 1.757h1.165V43h-1.165v-4.243zm4.676.447l-.646.668c-.258-.267-.5-.4-.7-.4a.46.46 0 0 0-.275.084c-.058.042-.094.1-.097.184-.003.063.02.124.065.167a.98.98 0 0 0 .307.201l.388.184a2.58 2.58 0 0 1 .824.635c.152.22.23.483.226.752a1.29 1.29 0 0 1-.42.952 1.5 1.5 0 0 1-1.082.368c-.564.02-1.102-.248-1.438-.72l.63-.72a2.19 2.19 0 0 0 .436.35c.134.078.283.124.436.134a.5.5 0 0 0 .323-.1.32.32 0 0 0 .129-.234c0-.167-.145-.334-.452-.485l-.355-.184c-.662-.35-1.002-.785-1.002-1.32a1.1 1.1 0 0 1 .388-.852 1.28 1.28 0 0 1 .97-.368 1.76 1.76 0 0 1 .759.184 1.8 1.8 0 0 1 .598.518h0zm4.98 1.856h-3.392a1.16 1.16 0 0 0 .393.735 1.31 1.31 0 0 0 .819.267 1.46 1.46 0 0 0 1.016-.418l.885.418a2.36 2.36 0 0 1-.803.719 2.43 2.43 0 0 1-1.098.217 2.09 2.09 0 0 1-1.588-.617 2.2 2.2 0 0 1-.64-1.606 2.26 2.26 0 0 1 .623-1.62 2.06 2.06 0 0 1 1.557-.652 2.11 2.11 0 0 1 1.606.652c.423.46.647 1.074.623 1.705v.2zm-1.05-.836a1.08 1.08 0 0 0-.426-.585 1.15 1.15 0 0 0-.705-.234c-.277-.007-.548.08-.77.25a1.42 1.42 0 0 0-.393.568h2.294zm3.992-2.724h1V43h-1zm2.45 1.12h1.105v.445c.2-.178.44-.328.7-.445.598-.244 1.285-.1 1.744.342.26.257.38.633.38 1.13V43h-1.105v-1.916a4.51 4.51 0 0 0-.07-1.044c-.026-.157-.113-.298-.242-.393s-.277-.14-.432-.137c-.218-.005-.43.075-.587.222-.17.17-.283.383-.328.616a4.61 4.61 0 0 0-.052.89V43h-1.105v-4.38zM189 37h1.077v5.9H189v-.45a1.91 1.91 0 0 1-.613.415 1.62 1.62 0 0 1-.696.133 1.84 1.84 0 0 1-1.409-.631c-.4-.428-.63-1.003-.613-1.595-.02-.592.188-1.17.58-1.612.364-.405.882-.634 1.425-.63a1.77 1.77 0 0 1 .713.15 1.89 1.89 0 0 1 .613.432V37zm-1.1 2.5a1.1 1.1 0 0 0-.83.35 1.33 1.33 0 0 0-.331.897 1.23 1.23 0 0 0 .348.914 1.06 1.06 0 0 0 .812.366 1.11 1.11 0 0 0 .829-.366 1.28 1.28 0 0 0 .331-.914 1.28 1.28 0 0 0-.331-.897 1.1 1.1 0 0 0-.83-.35h0zm3.174-1h1.13v2.112a3.05 3.05 0 0 0 .087.858c.057.148.153.278.278.378.14.1.303.14.47.137.346.01.658-.207.766-.532a2.66 2.66 0 0 0 .07-.807V38.5h1.114v1.854c0 .773-.052 1.305-.174 1.58-.137.322-.367.597-.66.8a2.03 2.03 0 0 1-1.114.275 2.22 2.22 0 0 1-1.2-.31 1.75 1.75 0 0 1-.626-.9c-.114-.478-.16-.97-.14-1.46V38.5zm7.28.703l-.65.668c-.26-.267-.503-.4-.714-.4a.46.46 0 0 0-.276.084c-.06.042-.095.1-.097.184a.22.22 0 0 0 .065.167 1.1 1.1 0 0 0 .308.2l.373.184a2.52 2.52 0 0 1 .844.635c.345.542.263 1.26-.195 1.705-.303.262-.693.393-1.088.368-.567.02-1.108-.248-1.445-.72l.633-.72a2.29 2.29 0 0 0 .438.35 1 1 0 0 0 .438.134.51.51 0 0 0 .325-.1.32.32 0 0 0 .13-.234c0-.167-.146-.334-.455-.485l-.357-.184c-.666-.35-1.007-.785-1.007-1.32a1.1 1.1 0 0 1 .39-.852 1.28 1.28 0 0 1 .958-.368c.54.003 1.05.26 1.38.702h0zm.66-2.203h1.153v1.6h.703v.943h-.703V43h-1.153v-3.446h-.595v-.943h.595z"/><path d="M200.87 38.62h.984v.548a1.19 1.19 0 0 1 .411-.496c.173-.115.38-.175.6-.17a1 1 0 0 1 .465.12l-.358.94a.79.79 0 0 0-.322-.103c-.208.013-.4.14-.465.325-.107.205-.18.616-.18 1.232V43h-1.127v-4.38zm3.674-1.62c.195-.002.383.07.52.2a.67.67 0 0 1 .215.497.64.64 0 0 1-.215.481.71.71 0 0 1-.52.199c-.195.002-.383-.07-.52-.2s-.22-.3-.215-.497c0-.375.33-.68.735-.68h0zm-.574 1.757h1.147V43h-1.147v-4.243z"/><use xlink:href="#B"/><path d="M210.67 37h1v6h-1zm1.96 0h1v6h-1z"/><use xlink:href="#B" x="8.82"/></g></g><defs ><path id="B" d="M210.18 41.06h-3.39a1.16 1.16 0 0 0 .395.735 1.27 1.27 0 0 0 .806.267 1.45 1.45 0 0 0 1.02-.418l.888.418c-.2.303-.472.55-.8.72a2.5 2.5 0 0 1-1.102.217c-.606.03-1.197-.2-1.63-.635-.41-.422-.63-.996-.61-1.588a2.26 2.26 0 0 1 .609-1.621 2.09 2.09 0 0 1 1.563-.652c.608-.02 1.198.216 1.63.652.41.435.61 1.003.61 1.705v.2zm-1.053-.836a1.07 1.07 0 0 0-.411-.585c-.21-.154-.464-.236-.724-.234a1.27 1.27 0 0 0-.773.251 1.59 1.59 0 0 0-.378.568h2.287z"/></defs></svg>