<?xml version="1.0" encoding="utf-8"?>
<!-- Generator: Adobe Illustrator 26.0.2, SVG Export Plug-In . SVG Version: 6.00 Build 0)  -->
<svg version="1.1" id="Layer_1" xmlns="http://www.w3.org/2000/svg" xmlns:xlink="http://www.w3.org/1999/xlink" x="0px" y="0px"
	 viewBox="0 0 547 168.04" style="enable-background:new 0 0 547 168.04;" xml:space="preserve">
<style type="text/css">
	.st0{fill:#334781;stroke:#FFFFFF;stroke-width:0.25;stroke-miterlimit:10;}
	.st1{stroke:#FFFFFF;stroke-width:0.25;stroke-miterlimit:10;}
	.st2{fill:#D70612;stroke:#FFFFFF;stroke-width:0.25;stroke-miterlimit:10;}
	.st3{opacity:0.8;stroke:#FFFFFF;stroke-width:0.25;stroke-miterlimit:10;}
	.st4{font-family:'MyriadPro-Regular';}
	.st5{font-size:23.39px;}
</style>
<path class="st0" d="M83.1,0.54c-8,1.2-19.1,5.6-23.5,9.3l-3.8,3.3l5.9,15.1l5.9,15.1l1.9-3c2.3-3.5,8.6-8,13.4-9.6
	c5.1-1.8,14-1.4,18.7,0.7c21.1,9.6,22.7,37.1,2.8,48.7c-9.7,5.7-23.3,3.8-31.5-4.4c-5.1-5.2-5.3-5.6-21.4-46.7l-10.2-26l-15.6-0.3
	C17,2.64,10,2.64,10,2.94c0,0.8,6.8,18.3,19.1,49.4c7.5,18.8,13.6,32.5,16.1,36.2c7.3,11,19,19.1,33,22.6c8.7,2.3,24.1,1.5,32.1-1.6
	c8.4-3.2,19-10.6,24.2-17c8.9-10.7,12.9-22.6,12.7-37.5c-0.1-14.3-4.2-25.1-13.5-35.9C122.2,5.74,100.6-2.16,83.1,0.54z"/>
<path class="st1" d="M399,10.44c0,0.4,4,17.7,8.9,38.2c4.9,20.6,9.2,38.9,9.6,40.6c0.6,3,0.4,3.3-1.7,3.3c-2.2,0-2.5,0.6-4.4,12
	l-2,12h7.2h7.2l0.9,3.7l0.9,3.8l16.2,0.3l16.3,0.2l-0.6-2.2c-2.5-10.5-25.5-111.5-25.5-112s-7.4-0.8-16.5-0.8S399,9.94,399,10.44z"
	/>
<path class="st1" d="M509.5,10.54c-22.6,3.1-36.2,16-41,38.8c-0.8,4-1.5,9.1-1.5,11.3v3.9l16.3-0.2l16.2-0.3l0.7-6.4
	c0.9-7.9,4.3-14.9,8.6-17.8c4.4-2.9,12.5-3.8,21.9-2.4c4.2,0.6,7.8,1,8,0.7c0.6-0.5,3.2-24,2.7-24.7c-0.4-0.7-12.2-2.6-20.4-3.3
	C518,9.94,512.8,10.04,509.5,10.54z"/>
<path d="M162.2,24.04l5,12.5l30.1-0.2l30.1-0.3l2.3-11.5c1.2-6.3,2.2-11.8,2.2-12.3c0.1-0.4-16.7-0.7-37.3-0.7h-37.4L162.2,24.04z"
	/>
<path class="st1" d="M246.7,16.44c1.5,2.6,13.2,22.7,25.8,44.5l23,39.6l8.3-0.3l8.3-0.2l22.5-44.3l22.4-44.2h-15.3h-15.3l-10.9,23.6
	l-10.9,23.6l-1.6-3.4c-0.9-1.8-5.9-12.4-11-23.6l-9.4-20.2h-19.4h-19.4L246.7,16.44z"/>
<path class="st1" d="M380.1,72.24c-6.8,27.4-12.6,50.4-12.9,51c-0.3,1,3.3,1.3,16,1.3h16.4l3.7-20.3c2.1-11.1,3.8-20.9,3.8-21.7
	c0-2.2-13.5-60-14.1-60C392.7,22.54,386.9,44.94,380.1,72.24z"/>
<path class="st1" d="M340.2,62.04L326,90.44v17.1v17h14.5H355v-45.5c0-25-0.1-45.5-0.3-45.5C354.6,33.54,348.1,46.34,340.2,62.04z"
	/>
<path d="M166,84.54v40h31.3h31.4l1.7-9.8c0.9-5.3,2-10.9,2.3-12.5l0.5-2.7h-18.6H196v-10.5v-10.5h12.4h12.4l2.1-11.3
	c1.2-6.1,2.1-11.8,2.1-12.5c0-0.9-3.6-1.2-14.5-1.2H196v-4.5v-4.5h-15h-15V84.54z"/>
<path class="st1" d="M254,84.34v40.2h14.5H283v-14.6v-14.7l-14.2-25.1c-7.8-13.8-14.3-25.3-14.5-25.5
	C254.2,44.44,254,62.24,254,84.34z"/>
<path class="st1" d="M511,69.34c0,0.5,1.8,5.3,4,10.7l4,9.8v17.9v17.8h3.4c4.9,0,12.4-1.6,18.9-4l5.7-2.1v-25.5v-25.4h-18
	C519.1,68.54,511,68.94,511,69.34z"/>
<path class="st2" d="M24,73.04c-0.6,1.6-6.3,16.1-12.6,32.1S0,134.54,0,134.94c0,0.3,7,0.5,15.6,0.4l15.6-0.3l6.4-15.9l6.3-15.9
	l-4.6-6.1c-3.9-5.2-8.3-13.5-13-24.6l-1.1-2.5L24,73.04z"/>
<path class="st1" d="M467,78.04c0,6.6,2.9,19,5.9,25.5c3.6,7.6,9.5,14.3,15.8,17.8c5.3,2.8,15,5.7,19.5,5.7h2.8v-13.5
	c0-10.5-0.3-13.5-1.3-13.5c-1.7,0-5-3.6-7.2-7.9c-0.9-1.8-1.9-6.7-2.2-10.7l-0.6-7.4h-16.3H467V78.04z"/>
<text transform="matrix(0.9547 0 0 1 43.1571 163.0022)" class="st3 st4 st5">INNOVATIONS FOR TRAINING AND CONSULTANCY</text>
</svg>
